<svg width="32" height="32" viewBox="0 0 100 100" fill="none" xmlns="http://www.w3.org/2000/svg">
  <circle cx="50" cy="50" r="46" stroke="#3b82f6" stroke-width="2.5" />
  
  <!-- Network Lines -->
  <path d="M50 4V96" stroke="#3b82f6" stroke-width="2" />
  <path d="M4 50H96" stroke="#3b82f6" stroke-width="2" />
  <path d="M17.5 17.5L82.5 82.5" stroke="#3b82f6" stroke-width="2" />
  <path d="M82.5 17.5L17.5 82.5" stroke="#3b82f6" stroke-width="2" />
  <path d="M25 4V96" stroke="#3b82f6" stroke-width="1.5" opacity="0.6" />
  <path d="M75 4V96" stroke="#3b82f6" stroke-width="1.5" opacity="0.6" />
  <path d="M4 25H96" stroke="#3b82f6" stroke-width="1.5" opacity="0.6" />
  <path d="M4 75H96" stroke="#3b82f6" stroke-width="1.5" opacity="0.6" />

  <!-- Nodes (Dots) -->
  <circle cx="50" cy="50" r="5" fill="#3b82f6" />
  <circle cx="25" cy="25" r="4" fill="#3b82f6" />
  <circle cx="75" cy="25" r="4" fill="#3b82f6" />
  <circle cx="25" cy="75" r="4" fill="#3b82f6" />
  <circle cx="75" cy="75" r="4" fill="#3b82f6" />
  <circle cx="50" cy="4" r="3" fill="#3b82f6" />
  <circle cx="50" cy="96" r="3" fill="#3b82f6" />
  <circle cx="4" cy="50" r="3" fill="#3b82f6" />
  <circle cx="96" cy="50" r="3" fill="#3b82f6" />
  <circle cx="14" cy="14" r="3" fill="#3b82f6" />
  <circle cx="86" cy="14" r="3" fill="#3b82f6" />
  <circle cx="14" cy="86" r="3" fill="#3b82f6" />
  <circle cx="86" cy="86" r="3" fill="#3b82f6" />
</svg>
